<svg xmlns="http://www.w3.org/2000/svg" viewBox="0 0 512 512">
  <defs>
    <linearGradient id="bg" x1="0" y1="0" x2="0" y2="1">
      <stop offset="0" stop-color="#eaf6f3"/>
      <stop offset="1" stop-color="#d3ece1"/>
    </linearGradient>
  </defs>
  <rect width="512" height="512" rx="96" fill="url(#bg)"/>
  <!-- App camper icon, cropped to its content and scaled to fill the tile. -->
  <svg x="26" y="70" width="460" height="372" viewBox="14 54 492 400">
    <!-- Antenna -->
    <rect x="130" y="60" width="10" height="26" fill="#9099A2" />
    <rect x="108" y="60" width="54" height="10" fill="#9099A2" />
    <!-- Main body -->
    <path d="M20 130 Q20 96 60 96 L370 96 Q430 96 430 180 L430 340 Q430 400 370 400 L60 400 Q20 400 20 366 Z" fill="#E6E7E8" />
    <!-- Top red stripe -->
    <path d="M20 205 L430 205 L430 220 L20 220 Z" fill="#FF6F5B" />
    <!-- Yellow lower band -->
    <path d="M20 300 L430 300 L430 340 Q430 400 370 400 L60 400 Q20 400 20 366 Z" fill="#FFC94A" />
    <!-- Left large window -->
    <rect x="34" y="205" width="150" height="100" rx="14" fill="#1F3A5F" />
    <rect x="46" y="217" width="126" height="76" fill="#54C8C0" />
    <rect x="46" y="255" width="126" height="38" fill="#3AA9A0" />
    <!-- Second window -->
    <rect x="196" y="205" width="82" height="100" rx="14" fill="#1F3A5F" />
    <rect x="206" y="217" width="62" height="76" fill="#54C8C0" />
    <rect x="206" y="255" width="62" height="38" fill="#3AA9A0" />
    <!-- Door panel -->
    <rect x="298" y="178" width="86" height="230" rx="10" fill="#FF6F5B" />
    <rect x="298" y="178" width="86" height="18" rx="9" fill="#1F3A5F" />
    <!-- Door window -->
    <rect x="318" y="205" width="46" height="66" rx="8" fill="#1F3A5F" />
    <rect x="326" y="213" width="30" height="50" fill="#54C8C0" />
    <!-- Trailer hitch -->
    <rect x="430" y="374" width="70" height="12" fill="#1F3A5F" />
    <rect x="478" y="368" width="12" height="70" fill="#1F3A5F" />
    <!-- Wheels -->
    <circle cx="120" cy="410" r="38" fill="#4A4A4A" />
    <circle cx="120" cy="410" r="18" fill="#B0B3B6" />
    <circle cx="310" cy="410" r="38" fill="#4A4A4A" />
    <circle cx="310" cy="410" r="18" fill="#B0B3B6" />
  </svg>
</svg>
