<svg xmlns="http://www.w3.org/2000/svg" xmlns:xlink="http://www.w3.org/1999/xlink" viewBox="0 0 512 512">
  <!-- trailer only, transparent background (favicon source) -->
  <svg x="0" y="43" width="512" height="426" viewBox="60 140 640 533">
    <title>illus-assurance-autresvr</title>
    <defs>
        <rect id="path-1" x="0" y="0" width="1109.18544" height="839.160839"></rect>
    </defs>
    <g id="UI-|-Autres-vr" stroke="none" stroke-width="1" fill="none" fill-rule="evenodd">
        <g id="assets-page-assurance-autresvr" transform="translate(-470.000000, -2008.000000)">
            <g id="illus-assurance-autresvr" transform="translate(451.000000, 1996.000000)">
                <mask id="mask-2" fill="white">
                    <use xlink:href="#path-1" transform="translate(554.592721, 419.580420) scale(-1, 1) translate(-554.592721, -419.580420) "></use>
                </mask>
                <g id="Mask-Photo" transform="translate(554.592721, 419.580420) scale(-1, 1) translate(-554.592721, -419.580420) "></g>
                <g id="illus-assurance-vr" mask="url(#mask-2)">
                    <g transform="translate(19.410745, 12.587413)">
                        <path d="M428.103986,294.979021 L473.17851,294.979021 C478.588655,294.776372 482.870853,290.293366 482.870853,284.832168 C482.870853,279.37097 478.588655,274.887964 473.17851,274.685315 L428.103986,274.685315 C422.69384,274.887964 418.411643,279.37097 418.411643,284.832168 C418.411643,290.293366 422.69384,294.776372 428.103986,294.979021 M263.2513,294.979021 L308.325823,294.979021 C313.735969,294.776372 318.018166,290.293366 318.018166,284.832168 C318.018166,279.37097 313.735969,274.887964 308.325823,274.685315 L263.2513,274.685315 C257.841154,274.887964 253.558957,279.37097 253.558957,284.832168 C253.558957,290.293366 257.841154,294.776372 263.2513,294.979021" id="Shape" fill="#C9C9C9" fill-rule="evenodd"></path>
                        <polygon id="Path" fill="#858585" fill-rule="evenodd" points="338.232236 183.356643 341.920277 183.356643 341.920277 156.979021 338.232236 156.979021"></polygon>
                        <path d="M357.878683,160.223776 C357.878683,160.223776 348.17331,163.986014 328.221837,155.286713 C326.641248,151.72028 333.920277,145.65035 340.242634,150.923077 C340.242634,150.923077 347.036395,155.118881 351.181976,154.937063 C355.327556,154.755245 359.265165,157.160839 357.878683,160.223776" id="Path" fill="#8A635B" fill-rule="evenodd"></path>
                        <polygon id="Path" fill="#858585" fill-rule="evenodd" points="356.325823 213.804196 360.166378 215.062937 349.948007 242.20979 346.107452 240.937063"></polygon>
                        <path d="M354.717504,211.762238 L363.618718,211.762238 C365.096467,212.010389 366.179681,213.300008 366.179681,214.811189 C366.179681,216.32237 365.096467,217.611988 363.618718,217.86014 L354.717504,217.86014 C353.239755,217.611988 352.156541,216.32237 352.156541,214.811189 C352.156541,213.300008 353.239755,212.010389 354.717504,211.762238" id="Path" fill="#858585" fill-rule="evenodd"></path>
                        <path d="M450.606586,203.342655 C436.647523,203.337 424.05984,211.814886 418.714052,224.822487 C413.368263,237.830088 416.317329,252.805294 426.185894,262.764125 C436.05446,272.722955 450.898712,275.703817 463.795743,270.316527 C476.692773,264.929237 485.102253,252.23493 485.102253,238.153846 C485.086974,218.940005 469.653922,203.365791 450.606586,203.342655 M450.606586,280.76924 C433.517114,280.780546 418.104145,270.404818 411.556513,254.481439 C405.008881,238.55806 408.61643,220.223838 420.696546,208.030122 C432.776663,195.836407 450.949637,192.185286 466.739328,198.779696 C482.529018,205.374105 492.824957,220.914987 492.824957,238.153846 C492.802059,261.669182 473.918129,280.730692 450.606586,280.76924" id="Shape" fill="#4F4F4F" fill-rule="evenodd"></path>
                        <path d="M454.655132,239.160839 C454.66072,241.216797 453.436546,243.073198 451.554615,243.862594 C449.672685,244.651991 447.504574,244.21852 446.063385,242.764733 C444.622195,241.310945 444.192481,239.123882 444.975036,237.225502 C445.757592,235.327121 447.597906,234.092246 449.636049,234.097883 C452.408001,234.097883 454.655132,236.364656 454.655132,239.160839" id="Path" fill="#2B2B2B" fill-rule="evenodd"></path>
                        <path d="M403.327556,260.475524 C400.048685,253.658662 398.351262,246.178286 398.363881,238.601399 C398.363881,210.377622 421.615251,187.412246 450.176776,187.412246 C457.998512,187.384184 465.726645,189.128773 472.790295,192.517483 L471.043328,195.986014 C464.522823,192.866233 457.393548,191.255889 450.176776,191.272727 C423.833622,191.272727 402.287695,212.503497 402.287695,238.587413 C402.275329,245.588248 403.844822,252.499853 406.87695,258.797203 L403.327556,260.475524 Z" id="Path" fill="#919191" fill-rule="evenodd"></path>
                        <path d="M287.805893,203.342646 C273.845572,203.331342 261.253636,211.805637 255.903478,224.812787 C250.55332,237.819937 253.498961,252.797436 263.366433,262.759167 C273.233905,272.720898 288.079243,275.704326 300.977976,270.317858 C313.876709,264.931391 322.287695,252.236202 322.287695,238.153846 C322.272431,218.945456 306.847813,203.373496 287.805893,203.342646 M287.805893,280.769289 C270.712659,280.797525 255.286935,270.432579 248.726193,254.510561 C242.165451,238.588544 245.762716,220.247449 257.839544,208.045031 C269.916373,195.842612 288.0926,192.183785 303.887399,198.775719 C319.682197,205.367652 329.982669,220.911173 329.982669,238.153846 C329.959771,261.669182 311.075841,280.730692 287.764298,280.769289" id="Shape" fill="#4F4F4F" fill-rule="evenodd"></path>
                        <path d="M287.805893,231.594391 C285.174582,231.588746 282.799246,233.183309 281.788397,235.633951 C280.777549,238.084592 281.330456,240.908216 283.189091,242.787103 C285.047726,244.665991 287.845694,245.229757 290.277252,244.215306 C292.708809,243.200854 294.294627,240.808164 294.294627,238.153846 C294.294627,234.536622 291.391763,231.602118 287.805893,231.594391 M287.805893,252.349657 C282.105853,252.355307 276.964217,248.895278 274.780315,243.584175 C272.596414,238.273073 273.800727,232.157799 277.831265,228.092028 C281.861804,224.026257 287.924086,222.811417 293.189165,225.014409 C298.454244,227.217401 301.88429,232.403981 301.87869,238.153846 C301.87104,245.990777 295.574912,252.341941 287.805893,252.349657" id="Shape" fill="#4F4F4F" fill-rule="evenodd"></path>
                        <path d="M334.350087,258.447552 L330.800693,256.965035 C336.634906,242.330289 334.936799,225.734404 326.262273,212.610273 C317.587746,199.486142 303.053558,191.523366 287.417678,191.328671 C274.970591,191.313096 263.041652,196.354241 254.322357,205.314685 L251.618718,202.517483 C261.050325,192.826229 273.954601,187.3764 287.417678,187.398534 C304.333939,187.621337 320.053707,196.242835 329.436041,210.44355 C338.818375,224.644265 340.656801,242.598128 334.350087,258.433566" id="Path" fill="#919191" fill-rule="evenodd"></path>
                        <path d="M449.289428,240.181818 C448.189962,240.178444 447.191036,239.535721 446.724437,238.531469 L420.769497,183.986014 C420.583369,183.582693 420.484133,183.144144 420.478301,182.699301 L420.478301,151.79021 C420.470567,150.186641 421.74496,148.876146 423.334489,148.853147 L444.298094,148.853147 C451.107301,149.080812 456.510522,154.714912 456.510522,161.587413 C456.510522,168.459913 451.107301,174.094013 444.298094,174.321678 L438.571924,174.321678 C436.963885,174.321678 435.660312,173.00671 435.660312,171.384615 C435.660312,169.76252 436.963885,168.447553 438.571924,168.447552 L444.298094,168.447552 C447.934699,168.281874 450.798574,165.259546 450.798574,161.587413 C450.798574,157.915279 447.934699,154.892952 444.298094,154.727273 L426.204506,154.727273 L426.204506,182 L451.854419,236 C452.550297,237.449658 451.971646,239.194577 450.551127,239.93007 C450.156825,240.119613 449.726195,240.219858 449.289428,240.223776" id="Path" fill="#EC7878" fill-rule="evenodd"></path>
                        <path d="M443.230503,148.853147 L438.84922,148.853147 C437.179923,148.853147 435.82669,150.218209 435.82669,151.902098 C435.82669,153.585987 437.179923,154.951049 438.84922,154.951049 L443.202773,154.951049 C446.742256,154.866095 449.832854,157.353114 450.537262,160.853147 C450.883961,162.913815 450.313576,165.023939 448.977925,166.621869 C447.642274,168.219798 445.676873,169.143405 443.604853,169.146853 L437.573657,169.146853 C435.904359,169.146853 434.551127,170.511915 434.551127,172.195804 C434.551127,173.879693 435.904359,175.244755 437.573657,175.244755 L443.674177,175.244755 C447.62302,175.235324 451.357029,173.429848 453.837615,170.330508 C456.3182,167.231169 457.28075,163.168581 456.457539,159.272727 C455.053373,153.105999 449.571699,148.765066 443.299827,148.853147" id="Path" fill="#4F4F4F" fill-rule="evenodd"></path>
                        <path d="M296.928943,234.34965 L347.563258,234.34965 L410.814558,187.160839 L342.696707,187.160839 L296.928943,234.34965 Z M348.838821,242.209801 L287.667244,242.209801 C286.09844,242.207654 284.683949,241.256555 284.078413,239.796673 C283.472876,238.336791 283.79444,236.652961 284.894281,235.524476 L338.30156,180.475524 C339.029114,179.719928 340.030309,179.295751 341.074523,179.300656 L422.627383,179.300656 C424.306956,179.306642 425.793697,180.3977 426.31632,182.007856 C426.838943,183.618012 426.279792,185.384783 424.928943,186.391608 L351.140381,241.440559 C350.476131,241.941843 349.668384,242.211809 348.838821,242.209801 L348.838821,242.209801 Z" id="Shape" fill="#EC7878" fill-rule="evenodd"></path>
                        <path d="M349.116118,242.210288 C347.644429,242.236681 346.375677,241.171137 346.135182,239.706294 L338.093588,184.657343 C337.992062,183.87667 338.207038,183.087695 338.689847,182.469036 C339.172657,181.850376 339.882466,181.454355 340.658579,181.370629 C342.27677,181.109842 343.800213,182.215559 344.069324,183.846154 L352.166378,238.895105 C352.255372,239.680102 352.025545,240.468006 351.529267,241.079285 C351.032988,241.690565 350.312532,242.073148 349.532062,242.13986 L349.116118,242.13986" id="Path" fill="#EC7878" fill-rule="evenodd"></path>
                        <path d="M364.201046,239.160839 C364.206649,245.316723 360.534884,250.869605 354.898481,253.229282 C349.262078,255.588958 342.771512,254.290529 338.454379,249.939662 C334.137246,245.588794 332.844101,239.042689 335.178146,233.354849 C337.51219,227.66701 343.013575,223.958042 349.116118,223.958042 C357.444122,223.965753 364.193396,230.774024 364.201046,239.174825" id="Path" fill="#4F4F4F" fill-rule="evenodd"></path>
                        <path d="M356.159445,238.153846 C356.151788,241.510246 353.450962,244.226333 350.123639,244.22376 C346.796315,244.221183 344.099624,241.50092 344.09707,238.144511 C344.094519,234.788103 346.787069,232.063669 350.114385,232.055944 C353.45298,232.055944 356.159445,234.786068 356.159445,238.153846" id="Path" fill="#858585" fill-rule="evenodd"></path>
                        <polygon id="Path" fill="#858585" fill-rule="evenodd" points="341.920277 266.559441 338.065858 265.300699 348.284229 238.153846 352.138648 239.412587"></polygon>
                        <path d="M343.514731,268.587413 L334.613518,268.587413 C333.123105,268.358807 332.021794,267.066177 332.021794,265.545455 C332.021794,264.024733 333.123105,262.732102 334.613518,262.503497 L343.514731,262.503497 C345.005144,262.732102 346.106456,264.024733 346.106456,265.545455 C346.106456,267.066177 345.005144,268.358807 343.514731,268.587413" id="Path" fill="#858585" fill-rule="evenodd"></path>
                        <path d="M291.82669,292.13986 L291.82669,269.398601 C291.686233,266.701932 289.477682,264.588056 286.800693,264.588056 C284.123704,264.588056 281.915154,266.701932 281.774697,269.398601 L281.774697,292.13986 C281.915154,294.83653 284.123704,296.950406 286.800693,296.950406 C289.477682,296.950406 291.686233,294.83653 291.82669,292.13986 M456.665511,292.13986 L456.665511,269.398601 C456.525054,266.701932 454.316504,264.588056 451.639515,264.588056 C448.962526,264.588056 446.753975,266.701932 446.613518,269.398601 L446.613518,292.13986 C446.753975,294.83653 448.962526,296.950406 451.639515,296.950406 C454.316504,296.950406 456.525054,294.83653 456.665511,292.13986" id="Shape" fill="#EBEBEB" fill-rule="evenodd"></path>
                        <path d="M378.27383,538.48951 C378.273838,553.038828 366.58961,564.83771 352.166378,564.853147 C351.500867,564.853147 344.665511,564.853147 344.013865,564.853147 C330.509532,563.846154 325.989601,552.377622 325.989601,538.48951 C325.989601,524.601399 330.620451,513.384615 344.013865,512.20979 C344.77643,512.20979 351.389948,512.111888 352.166378,512.111888 C359.100262,512.111888 365.74995,514.891396 370.651646,519.838563 C375.553342,524.785729 378.305238,531.495016 378.301563,538.48951" id="Path" fill="#1A1A1A" fill-rule="evenodd"></path>
                        <path d="M370.190675,538.48951 C370.159998,553.047879 358.436896,564.82544 344.004678,564.797171 C329.57246,564.7688 317.894871,552.945321 317.920335,538.386942 C317.945883,523.828563 329.664826,512.046793 344.097054,512.069896 C358.533363,512.100797 370.213637,523.926996 370.190675,538.48951" id="Path" fill="#2B2B2B" fill-rule="evenodd"></path>
                        <path d="M354.149047,539.51049 C354.149047,543.204389 351.943177,546.534564 348.560032,547.948159 C345.176886,549.361753 341.282717,548.580383 338.693369,545.968402 C336.104022,543.35642 335.329424,539.428211 336.730768,536.015493 C338.132113,532.602774 341.43343,530.377622 345.095321,530.377622 C350.09239,530.385324 354.141412,534.46974 354.149047,539.51049" id="Path" fill="#616161" fill-rule="evenodd"></path>
                        <path d="M440.152513,536.461538 L139.466205,536.461538 C137.213856,536.615685 135.064037,535.490986 133.891419,533.545032 C132.718801,531.599079 132.718801,529.156166 133.891419,527.210213 C135.064037,525.264259 137.213856,524.139559 139.466205,524.293706 L440.152513,524.293706 C442.404861,524.139559 444.55468,525.264259 445.727298,527.210213 C446.899917,529.156166 446.899917,531.599079 445.727298,533.545032 C444.55468,535.490986 442.404861,536.615685 440.152513,536.461538" id="Path" fill="#999999" fill-rule="evenodd"></path>
                        <path d="M542.5026,532.405594 L461.29636,532.405594 C460.580437,532.387328 459.901292,532.081819 459.409412,531.556761 C458.917531,531.031703 458.653532,530.330452 458.67591,529.608392 L458.67591,527.006993 C458.649749,526.283894 458.912482,525.580475 459.405157,525.054568 C459.897832,524.528662 460.579195,524.224305 461.29636,524.20979 L542.5026,524.20979 C543.219765,524.224305 543.901128,524.528662 544.393803,525.054568 C544.886478,525.580475 545.149211,526.283894 545.12305,527.006993 L545.12305,529.608392 C545.149211,530.331491 544.886478,531.03491 544.393803,531.560816 C543.901128,532.086723 543.219765,532.391079 542.5026,532.405594" id="Path" fill="#707070" fill-rule="evenodd"></path>
                        <path d="M603.119584,290.167832 C599.101449,286.685531 593.969726,284.787783 588.672444,284.824633 L454.668977,285.202797 L454.668977,526.321831 L583.417678,526.321831 C592.912878,526.354229 601.671168,521.164827 606.266898,512.783217 C681.012132,375.006993 624.055459,308.447552 603.119584,290.167832" id="Path" fill="#00727E" fill-rule="evenodd"></path>
                        <path d="M591.195841,386.293706 C554.287695,386.293706 529.275563,401.678322 529.275563,401.678322 L452.644714,401.440559 L452.644714,528.349694 L581.72617,528.349694 C591.264802,528.367167 600.052799,523.133012 604.644714,514.699301 C629.143847,469.272727 639.473137,431.566434 641.622184,400.699301 C641.622184,400.699301 628.090121,386.293706 591.195841,386.293706" id="Path" fill="#C7C9CC" fill-rule="evenodd"></path>
                        <path d="M490.606586,290.167832 C511.514731,308.447552 568.360485,374.993007 493.753899,512.783217 C489.167405,521.160394 480.419308,526.350053 470.932409,526.321794 L122.218371,526.321794 C111.997019,526.328633 102.270858,521.881634 95.5387329,514.123202 C88.8066075,506.36477 85.7247395,496.051169 87.084922,485.832168 L109.046794,321.86014 C110.310099,312.4444 115.245844,303.92642 122.759099,298.195804 L129.608319,292.965035 C135.741835,288.2652 143.229993,285.716224 150.932409,285.706294 L476.187175,284.782687 C481.476028,284.746254 486.598894,286.644371 490.606586,290.125874" id="Path" fill="#69B4C5" fill-rule="evenodd"></path>
                        <path d="M110.710572,390.391608 L106.870017,389.86014 L115.369151,328.727273 C116.726544,319.474843 121.725005,311.165373 129.233969,305.678322 L135.750433,300.881119 C141.995383,296.337284 149.499336,293.89076 157.199307,293.888112 L466.911612,293.034763 L466.911612,293.034763 C472.353727,293.012184 477.631964,294.912333 481.830156,298.405594 C493.712305,308.433566 521.317158,337.440559 521.001006,390.195804 L517.157712,390.195804 C517.476603,339.076923 490.814558,311.062937 479.376083,301.384615 C475.861547,298.473346 471.445252,296.899282 466.897747,296.937063 L466.897747,296.937063 L157.199307,297.776224 C150.317784,297.806475 143.617963,300.007107 138.038128,304.06993 L131.521664,308.867133 C124.862286,313.684553 120.428613,321.024184 119.237435,329.202797 L110.710572,390.391608 Z" id="Path" fill="#00727E" fill-rule="evenodd"></path>
                        <path d="M96.4991334,402.531469 L85.0745234,487.846154 C83.705739,498.080772 86.7880793,508.412783 93.5289946,516.18556 C100.26991,523.958336 110.011725,528.41353 120.249567,528.405642 L469.407279,528.405642 C478.884253,528.423751 487.619331,523.23551 492.20104,514.867133 C516.367418,470.223776 526.710572,433.090909 528.998267,402.601399 L96.4991334,402.531469 Z" id="Path" fill="#F5F7F9" fill-rule="evenodd"></path>
                        <path d="M527.029463,402.531469 L517.656846,402.531469 C505.608319,406.405594 437.532062,456.825175 254.225303,429.762238 C150.724437,419.328671 114.620451,422.573427 94.2391681,433.636364 L87.1403813,486.363636 C85.9179946,495.45899 88.2498609,504.677402 93.6429809,512.06993 C131.327556,469.72028 227.383016,470.363636 323.937608,472.643357 C466.093588,476.013986 517.615251,414.125874 527.029463,402.48951" id="Path" fill="#00874E" fill-rule="evenodd"></path>
                        <path d="M219.45234,528.34965 L287.805893,528.34965 C282.666368,513.759608 268.978734,504.012828 253.629116,504.012828 C238.279498,504.012828 224.591864,513.759608 219.45234,528.34965" id="Path" fill="#B3B3B3" fill-rule="evenodd"></path>
                        <path d="M281.774697,538.48951 C281.774697,553.049745 270.073577,564.853147 255.639515,564.853147 C254.974003,564.853147 248.138648,564.853147 247.500867,564.853147 C233.982669,563.846154 229.476603,552.377622 229.476603,538.48951 C229.476603,524.601399 234.107452,513.384615 247.500867,512.20979 C248.249567,512.20979 254.863085,512.111888 255.639515,512.111888 C270.07582,512.119609 281.774697,523.927012 281.774697,538.48951" id="Path" fill="#1A1A1A" fill-rule="evenodd"></path>
                        <path d="M273.733102,538.48951 C273.702488,553.042422 261.987847,564.817753 247.561026,564.797203 C233.134204,564.7766 221.452621,552.967899 221.462797,538.414958 C221.472987,523.862017 233.171084,512.06993 247.59792,512.06993 C262.034225,512.077651 273.733102,523.885054 273.733102,538.447552" id="Path" fill="#2B2B2B" fill-rule="evenodd"></path>
                        <path d="M255.639515,539.51049 C255.639515,543.204389 253.433645,546.534564 250.0505,547.948159 C246.667354,549.361753 242.773185,548.580383 240.183837,545.968402 C237.59449,543.35642 236.819891,539.428211 238.221236,536.015493 C239.622581,532.602774 242.923898,530.377622 246.585789,530.377622 C251.586023,530.377622 255.639515,534.466546 255.639515,539.51049" id="Path" fill="#D6D6D6" fill-rule="evenodd"></path>
                        <path d="M246.585789,532.447552 C251.171446,532.45467 255.020651,535.934187 255.528596,540.531469 C255.586083,540.189032 255.623122,539.843421 255.639515,539.496503 C255.44927,534.595338 251.455139,530.720965 246.592721,530.720965 C241.730303,530.720965 237.736172,534.595338 237.545927,539.496503 C237.55763,539.843146 237.59004,540.188761 237.642981,540.531469 C238.150926,535.934187 242.000131,532.45467 246.585789,532.447552" id="Path" fill="#B0B0B0" fill-rule="evenodd"></path>
                        <path d="M253.629116,538.48951 C253.629116,541.849565 250.928858,544.573427 247.59792,544.573427 C244.266983,544.573427 241.566724,541.849565 241.566724,538.48951 C241.566724,535.129456 244.266983,532.405594 247.59792,532.405594 C250.925695,532.413285 253.621492,535.132647 253.629116,538.48951" id="Path" fill="#F0F0F0" fill-rule="evenodd"></path>
                        <path d="M249.566724,539.51049 C249.566724,541.194379 248.213492,542.559441 246.544194,542.559441 C244.874897,542.559441 243.521664,541.194379 243.521664,539.51049 C243.521664,537.8266 244.874897,536.461538 246.544194,536.461538 C248.213492,536.461538 249.566724,537.8266 249.566724,539.51049" id="Path" fill="#A6A6A6" fill-rule="evenodd"></path>
                        <polygon id="Path" fill="#A1A1A1" fill-rule="evenodd" points="666.065858 556.755245 669.448873 556.755245 673.788562 516.167832 661.72617 516.167832"></polygon>
                        <path d="M551.154246,517.188811 L551.154246,517.188811 C551.105082,519.067163 551.816445,520.884694 553.124402,522.222556 C554.432359,523.560418 556.224077,524.303197 558.086655,524.27972 L673.053726,522.013986 C679.234517,521.589169 683.988433,516.33141 683.840555,510.083916 L557.850953,510.083916 C554.071197,510.213102 551.091566,513.374351 551.154246,517.188811" id="Path" fill="#A1A1A1" fill-rule="evenodd"></path>
                        <path d="M545.12305,517.538462 L545.12305,517.538462 C545.125684,519.369602 545.86514,521.121214 547.172042,522.39208 C548.478943,523.662946 550.241309,524.344172 552.055459,524.27972 L667.02253,522.125874 C673.051044,521.885443 677.814069,516.883162 677.809362,510.797203 L668.852686,510.797203 L551.819757,508 C548.117851,508 545.12305,513.762238 545.12305,517.482517" id="Path" fill="#EBEBEB" fill-rule="evenodd"></path>
                        <polygon id="Path" fill="#EBEBEB" fill-rule="evenodd" points="664.055459 556.755245 667.438475 556.755245 671.778163 516.167832 659.715771 516.167832"></polygon>
                        <path d="M671.778195,515.160839 C671.778195,516.395295 671.040225,517.507927 669.90908,517.979016 C668.777934,518.450104 667.47681,518.186675 666.613473,517.311779 C665.750137,516.436883 665.494976,515.123187 665.967178,513.984332 C666.43938,512.845478 667.545752,512.106225 668.769497,512.111856 C669.569853,512.111856 670.337228,512.433553 670.901862,513.005748 C671.466497,513.577943 671.781851,514.353496 671.778195,515.160839" id="Path" fill="#A1A1A1" fill-rule="evenodd"></path>
                        <path d="M557.185474,515.160839 C557.162503,516.840887 555.796474,518.18557 554.130922,518.167628 C552.465369,518.149685 551.12812,516.775882 551.140755,515.095723 C551.15339,513.415564 552.511146,512.062382 554.176776,512.069899 C554.977132,512.069899 555.744507,512.391595 556.309141,512.96379 C556.873776,513.535985 557.18913,514.311538 557.185474,515.118881" id="Path" fill="#999999" fill-rule="evenodd"></path>
                        <path d="M668.894281,516.181818 C668.894281,516.815208 668.385267,517.328671 667.757366,517.328671 C667.129465,517.328671 666.620451,516.815208 666.620451,516.181818 C666.620451,515.548429 667.129465,515.034965 667.757366,515.034965 C668.385267,515.034965 668.894281,515.548429 668.894281,516.181818" id="Path" fill="#5E5E5E" fill-rule="evenodd"></path>
                        <path d="M677.809369,555.734266 C677.81304,558.155166 676.862254,560.478183 675.166552,562.191332 C673.47085,563.90448 671.169422,564.867133 668.769497,564.867133 L665.996534,564.867133 C661.310225,564.517483 659.757366,560.545455 659.757366,555.734266 C659.757366,550.923077 661.365685,547.062937 665.996534,546.643357 L668.769497,546.643357 C673.762075,546.643357 677.809369,550.726019 677.809369,555.762238" id="Path" fill="#1A1A1A" fill-rule="evenodd"></path>
                        <path d="M673.830156,555.748252 C673.830156,559.443424 671.622779,562.77448 668.237931,564.187251 C664.853083,565.600021 660.957828,564.816085 658.369575,562.201203 C655.781321,559.58632 655.010149,555.65582 656.415863,552.243553 C657.821578,548.831286 661.127148,546.609726 664.790295,546.615374 C669.785114,546.623101 673.830156,550.709765 673.830156,555.748252" id="Path" fill="#2B2B2B" fill-rule="evenodd"></path>
                        <path d="M667.757398,555.748252 C667.757398,557.432141 666.404133,558.797203 664.734835,558.797203 C663.065538,558.797203 661.712305,557.432141 661.712305,555.748252 C661.712305,554.064363 663.065538,552.699268 664.734835,552.699268 C665.537591,552.69556 666.30854,553.015587 666.87618,553.588189 C667.44382,554.160791 667.761074,554.938479 667.757398,555.748252" id="Path" fill="#F0F0F0" fill-rule="evenodd"></path>
                        <polygon id="Path" fill="#E6E7E8" fill-rule="evenodd" points="599.403813 329.468531 554.010399 329.468531 547.133449 313.230769 592.526863 313.230769"></polygon>
                        <polygon id="Path" fill="#2F2F2F" fill-rule="evenodd" points="595.383016 321.356643 592.734835 315.272727 547.133449 315.272727 549.781629 321.356643"></polygon>
                        <path d="M592.651646,315.272727 L547.868284,315.272727 C546.310745,315.122066 545.121727,313.802137 545.121727,312.223776 C545.121727,310.645415 546.310745,309.325487 547.868284,309.174825 L592.651646,309.174825 C594.209185,309.325487 595.398204,310.645415 595.398204,312.223776 C595.398204,313.802137 594.209185,315.122066 592.651646,315.272727" id="Path" fill="#7CB76D" fill-rule="evenodd"></path>
                        <path d="M98.0242634,404.559441 L531.854419,404.559441 C532.980594,404.636514 534.055503,404.074164 534.641812,403.101187 C535.228121,402.128211 535.228121,400.906754 534.641812,399.933778 C534.055503,398.960801 532.980594,398.398451 531.854419,398.475524 L98.0242634,398.475524 C96.8980893,398.398451 95.8231798,398.960801 95.2368707,399.933778 C94.6505617,400.906754 94.6505617,402.128211 95.2368707,403.101187 C95.8231798,404.074164 96.8980893,404.636514 98.0242634,404.559441" id="Path" fill="#F5F5F5" fill-rule="evenodd"></path>
                        <path d="M369.580589,512.06993 L439.22357,512.06993 C440.11345,512.073647 440.968345,511.720615 441.600185,511.088497 C442.232025,510.45638 442.589051,509.596959 442.592721,508.699301 L442.592721,347.034965 C442.589051,346.137307 442.232025,345.277886 441.600185,344.645768 C440.968345,344.013651 440.11345,343.660619 439.22357,343.664307 L369.580589,343.664307 C368.69071,343.660619 367.835815,344.013651 367.203975,344.645768 C366.572135,345.277886 366.215108,346.137307 366.211438,347.034965 L366.211438,508.741259 C366.215108,509.638917 366.572135,510.498338 367.203975,511.130455 C367.835815,511.762573 368.69071,512.115605 369.580589,512.111917" id="Path" fill="#B3B3B3" fill-rule="evenodd"></path>
                        <polygon id="Path" fill="#EBEBEB" fill-rule="evenodd" points="372.242634 506.027972 436.57539 506.027972 436.57539 349.762238 372.242634 349.762238"></polygon>
                        <path d="M394.27383,331.496503 L414.558059,331.496503 C416.778684,331.496503 418.578856,329.680595 418.578856,327.440559 C418.578856,325.200523 416.778684,323.384615 414.558059,323.384615 L394.27383,323.384615 C392.053205,323.384615 390.253033,325.200523 390.253033,327.440559 C390.253033,329.680595 392.053205,331.496503 394.27383,331.496503" id="Path" fill="#EBEBEB" fill-rule="evenodd"></path>
                        <path d="M392.831889,443.119465 L415.944541,443.119465 C420.594972,443.173296 424.410523,439.418269 424.471404,434.727273 L424.471404,372.363636 C424.410523,367.67264 420.594972,363.917613 415.944541,363.971443 L392.831889,363.971443 C388.179138,363.917569 384.359612,367.670406 384.291161,372.363636 L384.291161,434.713287 C384.359612,439.406517 388.179138,443.159354 392.831889,443.104895 M179.091854,443.104895 L267.82669,443.104895 C273.265682,443.128132 277.695619,438.703282 277.72617,433.216783 L277.72617,373.846154 C277.711502,371.212523 276.660274,368.69264 274.803753,366.840873 C272.947231,364.989106 270.437499,363.957149 267.82669,363.971869 L179.091854,363.971869 C176.481045,363.957149 173.971313,364.989106 172.114791,366.840873 C170.25827,368.69264 169.207042,371.212523 169.192374,373.846154 L169.192374,433.230769 C169.222925,438.717268 173.652862,443.142118 179.091854,443.118972" id="Shape" fill="#707070" fill-rule="evenodd"></path>
                        <path d="M171.840555,457.314685 L275.105719,457.314685 C276.588246,457.247321 277.755403,456.014484 277.753901,454.517483 L277.753901,454.111888 C277.755403,452.614887 276.588246,451.38205 275.105719,451.314685 L171.840555,451.314685 C170.358028,451.38205 169.190871,452.614887 169.192373,454.111888 L169.192373,454.517483 C169.190871,456.014484 170.358028,457.247321 171.840555,457.314685" id="Path" fill="#EBEBEB" fill-rule="evenodd"></path>
                        <path d="M420.478336,374.111888 L413.171577,374.111888 C403.54015,383.902098 393.904102,393.692308 384.263432,403.482517 L384.263432,410.615385 C396.325823,398.447552 408.388215,386.270396 420.450607,374.083916 M392.831889,443.118987 L393.760832,443.118987 L424.443674,412.503497 L424.443674,386.293706 L384.235702,426.391608 L384.235702,434.601399 C384.26624,439.330921 388.087848,443.142128 392.77643,443.118987 M398.322357,374.111888 L384.291161,374.111888 L384.291161,388.321678 L398.363951,374.111888 M187.285962,374.111888 L169.15078,374.111888 L169.15078,392.377622 C175.168111,386.27972 181.176199,380.191142 187.175043,374.111888" id="Shape" fill="#878787" fill-rule="evenodd"></path>
                        <path d="M217.441941,374.111888 L210.870017,374.111888 C196.92201,388.172494 183.015598,402.25641 169.15078,416.363636 L169.15078,422.825175 L217.441941,374.111888 Z M206.12825,443.118881 L273.733102,374.111888 L238.807626,374.111888 C238.668977,374.27972 238.558059,374.461538 238.391681,374.629371 L173.227036,441.174825 C174.889717,442.426558 176.906283,443.10789 178.980936,443.118881 L206.12825,443.118881 Z M277.753899,403.762238 L277.753899,394.405594 L229.504333,443.118881 L238.696707,443.118881 C251.71115,430 264.730214,416.881119 277.753899,403.762238" id="Shape" fill="#D9DDE1" fill-rule="evenodd"></path>
                        <path d="M178.980936,367.678305 C175.663047,367.670574 172.965021,370.373415 172.94974,373.72028 L172.94974,433.356643 C172.953406,434.965213 173.591341,436.506222 174.722813,437.639713 C175.854285,438.773203 177.386318,439.406036 178.980936,439.398666 L267.965338,439.398666 C269.559955,439.406036 271.091989,438.773203 272.223461,437.639713 C273.354933,436.506222 273.992868,434.965213 273.996534,433.356643 L273.996534,373.72028 C273.981253,370.373415 271.283227,367.670574 267.965338,367.678305 L178.980936,367.678305 Z M267.965338,447.175172 L178.980936,447.175172 C175.324695,447.200872 171.808347,445.758763 169.20737,443.166536 C166.606394,440.574308 165.134437,437.04489 165.116118,433.356643 L165.116118,373.72028 C165.138105,370.034463 166.611677,366.508638 169.212254,363.919432 C171.81283,361.330227 175.327084,359.890034 178.980936,359.915737 L267.965338,359.915737 C271.61919,359.890034 275.133444,361.330227 277.73402,363.919432 C280.334597,366.508638 281.808169,370.034463 281.830156,373.72028 L281.830156,433.356643 C281.811837,437.04489 280.33988,440.574308 277.738903,443.166536 C275.137927,445.758763 271.621579,447.200872 267.965338,447.175172 L267.965338,447.175172 Z" id="Shape" fill="#4F4F4F" fill-rule="evenodd"></path>
                        <path d="M99.0779896,516.167832 L85.102253,516.167832 C82.8499047,516.321979 80.7000858,515.197279 79.5274676,513.251326 C78.3548495,511.305373 78.3548495,508.86246 79.5274676,506.916506 C80.7000858,504.970553 82.8499047,503.845853 85.102253,504 L99.0779896,504 C101.102192,503.945135 102.788821,505.552681 102.84922,507.594406 L102.84922,512.573427 C102.788821,514.615151 101.102192,516.222697 99.0779896,516.167832 M120.942808,510.083916 C120.942808,512.54463 119.473354,514.763047 117.219651,515.704722 C114.965947,516.646396 112.371822,516.125882 110.646912,514.385894 C108.922002,512.645907 108.405999,510.029106 109.339513,507.755702 C110.273028,505.482299 112.472221,504 114.911612,504 C116.511184,504 118.045243,504.640982 119.176311,505.781938 C120.30738,506.922893 120.942808,508.470361 120.942808,510.083916" id="Shape" fill="#97313C" fill-rule="evenodd"></path>
                        <path d="M116.92201,509.076923 C116.92201,510.760812 115.568777,512.125874 113.89948,512.125874 C112.230183,512.125874 110.87695,510.760812 110.87695,509.076923 C110.87695,507.393034 112.230183,506.027972 113.89948,506.027972 C115.568777,506.027972 116.92201,507.393034 116.92201,509.076923" id="Path" fill="#F24848" fill-rule="evenodd"></path>
                        <path d="M478.779896,511.104895 C478.779896,512.783217 476.090121,514.13986 472.7487,514.13986 C469.407279,514.13986 466.717504,512.741259 466.717504,511.104895 C466.717504,509.468531 469.421144,508.055944 472.7487,508.055944 C476.076256,508.055944 478.779896,509.454545 478.779896,511.104895" id="Path" fill="#D6D6D6" fill-rule="evenodd"></path>
                        <path d="M476.769497,512.06993 C476.769497,513.062937 474.980936,513.846154 472.7487,513.846154 C470.516464,513.846154 468.727903,513.062937 468.727903,512.06993 C468.727903,511.076923 470.530329,510.293706 472.7487,510.293706 C474.967071,510.293706 476.769497,511.090909 476.769497,512.06993" id="Path" fill="#97313C" fill-rule="evenodd"></path>
                        <path d="M563.216638,295.986014 C563.216638,297.664336 560.526863,299.034965 557.185442,299.034965 C553.844021,299.034965 551.154246,297.636364 551.154246,295.986014 C551.154246,294.335664 553.92721,292.937063 557.185442,292.937063 C560.443674,292.937063 563.216638,294.335664 563.216638,295.986014" id="Path" fill="#D6D6D6" fill-rule="evenodd"></path>
                        <path d="M561.206239,297.006993 C561.206239,297.986014 559.417678,298.783217 557.185442,298.783217 C554.953206,298.783217 553.164645,297.986014 553.164645,297.006993 C553.164645,296.027972 554.967071,295.216783 557.185442,295.216783 C559.403813,295.216783 561.206239,296.013986 561.206239,297.006993" id="Path" fill="#F72020" fill-rule="evenodd"></path>
                        <path d="M470.738302,306.13986 C470.738302,307.818182 468.048527,309.174825 464.707106,309.174825 C461.365685,309.174825 458.67591,307.776224 458.67591,306.13986 C458.67591,304.503497 461.379549,303.090909 464.707106,303.090909 C468.034662,303.090909 470.738302,304.48951 470.738302,306.13986" id="Path" fill="#D6D6D6" fill-rule="evenodd"></path>
                        <path d="M468.727903,305.076923 C468.727903,306.055944 466.939341,306.853147 464.720971,306.853147 C462.5026,306.853147 460.686308,306.055944 460.686308,305.076923 C460.686308,304.097902 462.488735,303.300699 464.720971,303.300699 C466.953206,303.300699 468.727903,304.097902 468.727903,305.076923" id="Path" fill="#F72020" fill-rule="evenodd"></path>
                        <path d="M159.140381,314.251748 C159.140381,318.167832 154.634315,321.356643 149.088388,321.356643 C143.542461,321.356643 139.036395,318.167832 139.036395,314.251748 C139.036395,310.335664 143.528596,307.146853 149.088388,307.146853 C154.64818,307.146853 159.140381,310.321678 159.140381,314.251748" id="Path" fill="#D6D6D6" fill-rule="evenodd"></path>
                        <path d="M155.119584,313.230769 C155.119584,315.482517 152.415945,317.300699 149.088388,317.300699 C145.760832,317.300699 143.057192,315.482517 143.057192,313.230769 C143.057192,310.979021 145.760832,309.174825 149.088388,309.174825 C152.415945,309.174825 155.119584,310.993007 155.119584,313.230769" id="Path" fill="#F72020" fill-rule="evenodd"></path>
                        <polygon id="Path" fill="#B5B051" fill-rule="evenodd" points="187.285962 320.335664 223.473137 320.335664 223.473137 318.307692 187.285962 318.307692"></polygon>
                        <polygon id="Path" fill="#B5B051" fill-rule="evenodd" points="187.285962 324.391608 223.473137 324.391608 223.473137 322.363636 187.285962 322.363636"></polygon>
                        <polygon id="Path" fill="#B5B051" fill-rule="evenodd" points="187.285962 328.461538 223.473137 328.461538 223.473137 326.433566 187.285962 326.433566"></polygon>
                        <polygon id="Path" fill="#B5B051" fill-rule="evenodd" points="187.285962 332.517483 223.473137 332.517483 223.473137 330.48951 187.285962 330.48951"></polygon>
                        <polygon id="Path" fill="#B5B051" fill-rule="evenodd" points="187.285962 338.601399 223.473137 338.601399 223.473137 336.573427 187.285962 336.573427"></polygon>
                        <polygon id="Path" fill="#999999" fill-rule="evenodd" points="596.714038 480.657343 533.060659 480.657343 533.740035 478.629371 597.393414 478.629371"></polygon>
                        <polygon id="Path" fill="#999999" fill-rule="evenodd" points="594.70364 484.713287 531.05026 484.713287 531.729636 482.685315 595.383016 482.685315"></polygon>
                        <polygon id="Path" fill="#999999" fill-rule="evenodd" points="592.693241 488.783217 529.039861 488.783217 529.719237 486.741259 593.372617 486.741259"></polygon>
                        <polygon id="Path" fill="#999999" fill-rule="evenodd" points="590.682842 494.867133 527.029463 494.867133 527.708839 492.839161 591.362218 492.839161"></polygon>
                        <polygon id="Path" fill="#999999" fill-rule="evenodd" points="590.682842 498.923077 527.029463 498.923077 527.708839 496.895105 591.362218 496.895105"></polygon>
                    </g>
                </g>
            </g>
        </g>
    </g>
</svg>
</svg>
